HIERARCHY
ROOT hip
{
	OFFSET 0.000000 0.000000 0.000000
	CHANNELS 6 Xposition Yposition Zposition Zrotation Yrotation Xrotation 
	JOINT lhipjoint
	{
		OFFSET 0.000000 0.000000 0.000000
		CHANNELS 3 Zrotation Yrotation Xrotation
		JOINT lfemur
		{
			OFFSET 1.363060 -1.794630 0.839290
			CHANNELS 3 Zrotation Yrotation Xrotation
			JOINT ltibia
			{
				OFFSET 2.448110 -6.726130 0.000000
				CHANNELS 3 Zrotation Yrotation Xrotation
				JOINT lfoot
				{
					OFFSET 2.562200 -7.039590 0.000000
					CHANNELS 3 Zrotation Yrotation Xrotation
					JOINT ltoes
					{
						OFFSET 0.157640 -0.433110 2.322550
						CHANNELS 3 Zrotation Yrotation Xrotation
						End Site
						{
							OFFSET 0.000000 0.000000 0.000000
						}
					}
				}
			}
		}
	}
	JOINT rhipjoint
	{
		OFFSET 0.000000 0.000000 0.000000
		CHANNELS 3 Zrotation Yrotation Xrotation
		JOINT rfemur
		{
			OFFSET -1.305520 -1.794630 0.839290
			CHANNELS 3 Zrotation Yrotation Xrotation
			JOINT rtibia
			{
				OFFSET -2.542530 -6.985550 0.000000
				CHANNELS 3 Zrotation Yrotation Xrotation
				JOINT rfoot
				{
					OFFSET -2.568260 -7.056230 0.000000
					CHANNELS 3 Zrotation Yrotation Xrotation
					JOINT rtoes
					{
						OFFSET -0.164730 -0.452590 2.363150
						CHANNELS 3 Zrotation Yrotation Xrotation
						End Site
						{
							OFFSET 0.000000 0.000000 0.000000
						}
					}
				}
			}
		}
	}
	JOINT lowerback
	{
		OFFSET 0.000000 0.000000 0.000000
		CHANNELS 3 Zrotation Yrotation Xrotation
		JOINT upperback
		{
			OFFSET 0.028270 2.035590 -0.193380
			CHANNELS 3 Zrotation Yrotation Xrotation
			JOINT thorax
			{
				OFFSET 0.056720 2.048850 -0.042750
				CHANNELS 3 Zrotation Yrotation Xrotation
				JOINT lowerneck
				{
					OFFSET 0.000000 0.000000 0.000000
					CHANNELS 3 Zrotation Yrotation Xrotation
					JOINT upperneck
					{
						OFFSET -0.054170 1.746240 0.172020
						CHANNELS 3 Zrotation Yrotation Xrotation
						JOINT head
						{
							OFFSET 0.104070 1.761360 -0.123970
							CHANNELS 3 Zrotation Yrotation Xrotation
							End Site
							{
								OFFSET 0.000000 0.000000 0.000000
							}
						}
					}
				}
				JOINT lclavicle
				{
					OFFSET 0.000000 0.000000 0.000000
					CHANNELS 3 Zrotation Yrotation Xrotation
					JOINT lhumerus
					{
						OFFSET 3.362410 1.200890 -0.311210
						CHANNELS 3 Zrotation Yrotation Xrotation
						JOINT lradius
						{
							OFFSET 4.983000 -0.000000 -0.000000
							CHANNELS 3 Zrotation Yrotation Xrotation
							JOINT lwrist
							{
								OFFSET 3.483560 -0.000000 -0.000000
								CHANNELS 3 Zrotation Yrotation Xrotation
								JOINT lhand
								{
									OFFSET 0.000000 0.000000 0.000000
									CHANNELS 3 Zrotation Yrotation Xrotation
									JOINT lfingers
									{
										OFFSET 0.715260 -0.000000 -0.000000
										CHANNELS 3 Zrotation Yrotation Xrotation
										End Site
										{
											OFFSET 0.000000 0.000000 0.000000
										}
									}
								}
								JOINT lthumb
								{
									OFFSET 0.000000 0.000000 0.000000
									CHANNELS 3 Zrotation Yrotation Xrotation
									End Site
									{
										OFFSET 0.000000 0.000000 0.000000
									}
								}
							}
						}
					}
				}
				JOINT rclavicle
				{
					OFFSET 0.000000 0.000000 0.000000
					CHANNELS 3 Zrotation Yrotation Xrotation
					JOINT rhumerus
					{
						OFFSET -3.136600 1.374050 -0.404650
						CHANNELS 3 Zrotation Yrotation Xrotation
						JOINT rradius
						{
							OFFSET -5.241900 -0.000000 -0.000000
							CHANNELS 3 Zrotation Yrotation Xrotation
							JOINT rwrist
							{
								OFFSET -3.444170 -0.000000 -0.000000
								CHANNELS 3 Zrotation Yrotation Xrotation
								JOINT rhand
								{
									OFFSET 0.000000 0.000000 0.000000
									CHANNELS 3 Zrotation Yrotation Xrotation
									JOINT rfingers
									{
										OFFSET -0.622530 -0.000000 -0.000000
										CHANNELS 3 Zrotation Yrotation Xrotation
										End Site
										{
											OFFSET 0.000000 0.000000 0.000000
										}
									}
								}
								JOINT rthumb
								{
									OFFSET 0.000000 0.000000 0.000000
									CHANNELS 3 Zrotation Yrotation Xrotation
									End Site
									{
										OFFSET 0.000000 0.000000 0.000000
									}
								}
							}
						}
					}
				}
			}
		}
	}
}
MOTION
Frames: 10
Frame Time: 0.008333
2.470470 16.892039 4.782974 -173.749048 -14.093875 163.936514 3.942122 3.209531 -0.190374 -14.395700 3.621379 13.446394 0.614010 3.913794 15.737610 0.766811 -1.695722 7.259853 0.929600 -6.142100 -17.197400 -6.288197 -2.764410 -3.435041 31.531730 -3.361622 16.619069 -2.846729 -6.411627 21.436561 1.512125 -12.553083 -10.926765 -0.306500 3.559100 -9.839500 2.888113 -0.489348 18.583054 1.272989 -1.016523 -2.220550 2.821683 -0.706144 4.613798 -8.677019 -4.131445 -16.825090 12.556831 -7.361854 9.211454 3.912700 -3.266400 1.771300 0.715292 -9.212936 3.853071 -74.473179 9.322870 24.594155 68.991783 -60.464926 -34.066672 1.009748 2.960224 97.706393 9.447330 19.341103 4.046300 -7.125000 0.000000 0.000000 -15.115400 48.362600 -1.281000 4.120198 8.467791 4.522373 64.153423 -6.316163 18.599838 -116.464912 48.602041 -82.571540 0.719417 -2.070586 159.250283 17.928594 -7.553390 -3.167100 7.125000 0.000000 0.000000 36.666000 -37.144500 8.563500 
2.463698 16.893490 4.796323 -173.753609 -14.279321 163.912876 3.944288 3.202663 -0.199368 -14.455115 3.594638 13.406081 0.607681 3.906864 15.721163 0.791382 -1.791970 7.393532 0.930800 -6.145900 -17.208300 -6.281862 -2.762330 -3.446318 31.484018 -3.381147 16.654478 -2.839123 -6.391749 21.366908 1.545295 -12.726355 -10.900568 -0.312100 3.591500 -9.930100 2.975598 -0.447233 18.554126 1.266120 -0.968077 -2.198405 2.766522 -0.678521 4.731909 -8.733748 -4.283405 -16.816721 12.488803 -7.542900 9.270333 3.907100 -3.351500 1.804800 0.743127 -9.107384 3.842448 -74.465354 7.141402 27.090650 68.745234 -60.593269 -33.436052 1.022802 3.010078 97.011480 9.522003 19.247260 4.056000 -7.125000 0.000000 0.000000 -14.951600 48.240200 -1.220500 4.073162 8.365780 4.503164 64.215098 -4.813686 21.618382 -115.860988 48.659775 -81.393421 0.742603 -2.142558 159.846281 17.062648 -6.542993 -2.723700 7.125000 0.000000 0.000000 35.677500 -36.431100 9.006500 
2.456347 16.894457 4.809382 -173.773195 -14.450786 163.876404 3.946550 3.194872 -0.208243 -14.555658 3.507372 13.418349 0.604028 3.904576 15.715930 0.799358 -1.821660 7.475383 0.901900 -6.052400 -16.936400 -6.276507 -2.754915 -3.459122 31.455129 -3.333821 16.743817 -2.832850 -6.370138 21.295683 1.588566 -12.964481 -10.918160 -0.320200 3.637500 -10.059100 3.007578 -0.418315 18.542927 1.262528 -0.943719 -2.175837 2.747875 -0.668541 4.845066 -8.774435 -4.411031 -16.795827 12.424249 -7.693358 9.348512 3.892500 -3.421700 1.836200 0.780269 -8.996914 3.833633 -74.499846 4.859419 29.743565 68.293514 -60.706958 -32.642242 1.020744 3.068876 96.306474 9.491905 19.179076 4.041800 -7.125000 0.000000 0.000000 -14.895100 48.144900 -1.180100 4.028522 8.260829 4.481042 64.311616 -3.267117 24.924065 -115.173257 48.752780 -80.002744 0.769464 -2.195347 160.416628 15.563374 -5.414877 -2.177300 7.125000 0.000000 0.000000 34.212800 -35.645800 9.293400 
2.448801 16.897069 4.822054 -173.785128 -14.618149 163.852892 3.946089 3.189863 -0.215039 -14.633150 3.449226 13.394912 0.599109 3.900947 15.706154 0.814673 -1.880115 7.583667 0.886300 -6.001200 -16.787900 -6.273370 -2.749818 -3.472438 31.401303 -3.348844 16.783183 -2.826416 -6.352002 21.233700 1.617076 -13.117990 -10.917914 -0.323700 3.656800 -10.113000 3.014366 -0.413057 18.526007 1.265834 -0.952274 -2.155129 2.775328 -0.680775 4.964038 -8.826677 -4.532231 -16.813007 12.348405 -7.820404 9.461877 3.867900 -3.477900 1.890800 0.824317 -8.876186 3.819329 -74.538441 2.453866 32.616261 67.648462 -60.795850 -31.690007 1.002482 3.128357 95.526333 9.380035 19.063656 3.992800 -7.125000 0.000000 0.000000 -14.904500 48.004400 -1.128300 3.984886 8.152837 4.452975 64.428005 -1.641608 28.462713 -114.206168 48.934105 -78.161512 0.789170 -2.220232 160.903150 13.433397 -4.412246 -1.635000 7.125000 0.000000 0.000000 32.350900 -34.975900 9.243900 
2.441160 16.897843 4.835403 -173.784230 -14.770188 163.826437 3.945806 3.184898 -0.222499 -14.688099 3.415734 13.368336 0.593425 3.894795 15.690158 0.834706 -1.959075 7.690396 0.874700 -5.962600 -16.675900 -6.270686 -2.745768 -3.483875 31.368104 -3.347593 16.823452 -2.820897 -6.335983 21.178993 1.645295 -13.265752 -10.904802 -0.332500 3.706100 -10.251300 3.037353 -0.404509 18.512326 1.268049 -0.955618 -2.134829 2.782648 -0.688368 5.074625 -8.838987 -4.644838 -16.809362 12.266083 -7.939994 9.583581 3.829700 -3.531500 1.939100 0.876029 -8.740422 3.805569 -74.537740 -0.267323 35.748385 66.259261 -60.764114 -30.228702 0.974990 3.176515 94.714524 9.312960 18.943586 3.954500 -7.125000 0.000000 0.000000 -14.884400 47.868600 -1.075900 3.942020 8.036919 4.427157 64.528075 0.109513 32.203424 -112.939111 49.201458 -75.850276 0.804800 -2.198531 161.327588 10.919931 -3.466891 -1.135600 7.125000 0.000000 0.000000 30.225900 -34.317700 9.020800 
2.433324 16.899197 4.848656 -173.796868 -14.917808 163.823382 3.944500 3.180970 -0.227875 -14.753813 3.388698 13.308816 0.589830 3.895489 15.694219 0.857026 -2.047750 7.803644 0.853200 -5.890800 -16.467800 -6.270136 -2.742383 -3.492867 31.330630 -3.323604 16.846228 -2.816515 -6.319029 21.122858 1.674500 -13.426495 -10.919085 -0.335900 3.724300 -10.302200 3.031343 -0.405530 18.492844 1.273067 -0.971719 -2.119439 2.832455 -0.703839 5.166547 -8.898000 -4.757535 -16.791085 12.191776 -8.055312 9.719589 3.804700 -3.582000 1.996000 0.933197 -8.597310 3.786220 -74.550227 -3.282534 39.118772 64.227468 -60.567446 -28.353567 0.941072 3.214155 93.725087 9.369475 18.788659 3.943000 -7.125000 0.000000 0.000000 -14.747000 47.706300 -1.005400 3.898660 7.908111 4.404564 64.532298 1.953253 36.139224 -111.309501 49.564182 -72.989918 0.802205 -2.129399 161.637032 8.362904 -2.812466 -0.760100 7.125000 0.000000 0.000000 28.139600 -33.847300 8.607000 
2.424521 16.901132 4.860941 -173.815611 -15.069606 163.824503 3.943534 3.176320 -0.234067 -14.836958 3.340566 13.255945 0.586405 3.897036 15.699955 0.876174 -2.123540 7.910644 0.820900 -5.781100 -16.150700 -6.267919 -2.739221 -3.505177 31.252134 -3.351853 16.850202 -2.811218 -6.304656 21.071189 1.694223 -13.530219 -10.904484 -0.340300 3.748600 -10.370600 3.028219 -0.401984 18.462025 1.277515 -0.985862 -2.100211 2.863518 -0.718378 5.280048 -8.948762 -4.876050 -16.768100 12.122948 -8.184409 9.862585 3.781400 -3.639600 2.053200 0.981406 -8.440027 3.765298 -74.492550 -6.390385 42.721726 62.207116 -60.255339 -26.508483 0.905074 3.232047 92.539778 9.500435 18.506626 3.917900 -7.125000 0.000000 0.000000 -14.514300 47.415600 -0.882900 3.849399 7.763300 4.384426 64.689317 3.940735 39.788651 -109.288127 50.058925 -69.577646 0.766497 -2.001576 162.083402 5.650194 -2.474644 -0.467100 7.125000 0.000000 0.000000 25.994800 -33.588900 7.993200 
2.416106 16.902776 4.873420 -173.810171 -15.188607 163.822146 3.941049 3.173565 -0.240369 -14.866256 3.358870 13.174303 0.583834 3.900554 15.712410 0.903648 -2.234586 8.030624 0.806100 -5.730100 -16.003400 -6.268995 -2.736820 -3.513926 31.231974 -3.329505 16.864749 -2.807539 -6.290467 21.024304 1.719166 -13.665551 -10.912031 -0.343500 3.766000 -10.419200 3.039147 -0.406465 18.450467 1.285023 -1.007361 -2.082245 2.896396 -0.738222 5.372825 -8.978495 -4.974079 -16.710200 12.047570 -8.289834 10.016872 3.750000 -3.686400 2.100000 1.010395 -8.285726 3.740624 -74.315786 -9.341783 46.342468 60.614071 -59.908450 -24.980921 0.858437 3.241038 90.985167 9.610602 18.126149 3.857100 -7.125000 0.000000 0.000000 -14.280600 47.013800 -0.723900 3.817589 7.619617 4.380436 64.777815 5.919230 43.165282 -107.295950 50.572358 -66.216275 0.709201 -1.830247 162.587320 3.319185 -2.327907 -0.258500 7.125000 0.000000 0.000000 24.155400 -33.422000 7.433300 
2.406723 16.904517 4.885318 -173.808754 -15.310756 163.825235 3.940046 3.169997 -0.245752 -14.922531 3.333774 13.112927 0.581611 3.903589 15.722570 0.921968 -2.308599 8.123101 0.784400 -5.654200 -15.784300 -6.269015 -2.734535 -3.522030 31.195473 -3.309738 16.872244 -2.804413 -6.278164 20.982847 1.738339 -13.772544 -10.924706 -0.340700 3.751000 -10.377100 3.062680 -0.416359 18.440369 1.290170 -1.033567 -2.066242 2.906350 -0.756176 5.444188 -9.008500 -5.062309 -16.598117 11.981915 -8.394493 10.173684 3.729600 -3.734200 2.132900 1.014877 -8.150539 3.720720 -74.135671 -11.907466 49.566906 59.598071 -59.614014 -23.875264 0.827938 3.220419 89.432675 9.819689 17.528048 3.764100 -7.125000 0.000000 0.000000 -13.912600 46.390600 -0.486700 3.799828 7.484699 4.392199 64.743797 7.700704 46.153473 -105.668650 51.013296 -63.409322 0.643730 -1.655803 163.258691 1.582632 -2.308567 -0.122700 7.125000 0.000000 0.000000 22.785900 -33.325000 7.004000 
2.397436 16.905098 4.897603 -173.813440 -15.407499 163.824416 3.936909 3.168877 -0.249828 -14.966386 3.354810 13.036769 0.580305 3.909806 15.742615 0.946212 -2.407540 8.223072 0.767700 -5.595100 -15.614100 -6.269509 -2.730845 -3.531137 31.144707 -3.311292 16.877309 -2.800336 -6.265250 20.938926 1.756409 -13.862895 -10.899977 -0.347300 3.786800 -10.477700 3.064833 -0.431982 18.462759 1.299221 -1.065809 -2.051339 2.957907 -0.784118 5.505929 -9.058652 -5.155738 -16.507521 11.908613 -8.495334 10.358633 3.705100 -3.778600 2.183900 1.015508 -8.032229 3.706717 -74.075247 -13.949258 52.013455 59.082511 -59.417127 -23.159334 0.821583 3.170338 88.132065 10.130678 16.695080 3.633500 -7.125000 0.000000 0.000000 -13.413900 45.535000 -0.180400 3.789429 7.364594 4.409938 64.712485 9.338048 48.383966 -104.189119 51.431177 -60.972017 0.562471 -1.495139 164.228437 0.234685 -2.480980 -0.026200 7.125000 0.000000 0.000000 21.745900 -33.389100 6.603000 
